<svg xmlns="http://www.w3.org/2000/svg" viewBox="0 0 512 512">
<rect width="512" height="512" rx="113" fill="#f7cede"/>
<rect x="112.6" y="112.6" width="215.0" height="307.2" rx="25.6" fill="#ffffff"/>
<rect x="179.2" y="74.2" width="81.9" height="51.2" rx="15.4" fill="#ffffff"/>
<rect x="197.1" y="89.6" width="46.1" height="24.1" rx="8.2" fill="#e0b063"/>
<rect x="145.9" y="154.6" width="30.7" height="30.7" rx="6.1" fill="none" stroke="#e0b063" stroke-width="5.6"/>
<line x1="194.6" y1="170.0" x2="294.4" y2="170.0" stroke="#e0b063" stroke-width="8.2" stroke-linecap="round"/>
<rect x="145.9" y="216.1" width="30.7" height="30.7" rx="6.1" fill="none" stroke="#e0b063" stroke-width="5.6"/>
<line x1="194.6" y1="231.4" x2="294.4" y2="231.4" stroke="#e0b063" stroke-width="8.2" stroke-linecap="round"/>
<rect x="145.9" y="277.5" width="30.7" height="30.7" rx="6.1" fill="none" stroke="#e0b063" stroke-width="5.6"/>
<line x1="194.6" y1="292.9" x2="294.4" y2="292.9" stroke="#e0b063" stroke-width="8.2" stroke-linecap="round"/>
<rect x="145.9" y="338.9" width="30.7" height="30.7" rx="6.1" fill="none" stroke="#e0b063" stroke-width="5.6"/>
<line x1="194.6" y1="354.3" x2="294.4" y2="354.3" stroke="#e0b063" stroke-width="8.2" stroke-linecap="round"/>
<rect x="279.6" y="336.9" width="157.7" height="124.9" rx="27.1" fill="#f7cede"/>
<rect x="261.1" y="316.4" width="194.6" height="43.0" rx="19.5" fill="#f7cede"/>
<rect x="336.9" y="298.0" width="43.0" height="38.9" rx="19.5" fill="#f7cede"/>
<rect x="246.8" y="357.4" width="49.2" height="55.3" rx="19.5" fill="#f7cede"/>
<rect x="420.9" y="357.4" width="49.2" height="55.3" rx="19.5" fill="#f7cede"/>
<rect x="288.8" y="346.1" width="139.3" height="106.5" rx="17.9" fill="#ffffff"/>
<rect x="270.3" y="325.6" width="176.1" height="24.6" rx="10.2" fill="#ffffff"/>
<rect x="346.1" y="307.2" width="24.6" height="20.5" rx="10.2" fill="#ffffff"/>
<rect x="256.0" y="366.6" width="30.7" height="36.9" rx="10.2" fill="#ffffff"/>
<rect x="430.1" y="366.6" width="30.7" height="36.9" rx="10.2" fill="#ffffff"/>
<line x1="325.6" y1="266.2" x2="325.6" y2="303.1" stroke="#e0b063" stroke-width="8.7" stroke-linecap="round"/>
<line x1="358.4" y1="266.2" x2="358.4" y2="303.1" stroke="#e0b063" stroke-width="8.7" stroke-linecap="round"/>
<line x1="391.2" y1="266.2" x2="391.2" y2="303.1" stroke="#e0b063" stroke-width="8.7" stroke-linecap="round"/>
</svg>
